:FULLY-SPECIFIED
:FORCE-ALL-JOINTS-BE-3DOF
:DEGREES
612
root -4.24033 15.6176 -40.5839 -3.5814 -75.2262 10.8164
lfemur -7.85219 13.1385 -16.3564
ltibia 43.4578 -0 0
lfoot -22.3121 29.9339 0.00953639
ltoes -23.627 0 0
rfemur -42.0361 -31.7202 17.8153
rtibia 78.3877 -0 0
rfoot -14.8446 -18.7114 0.10104
rtoes -4.1912 0 0
lowerback 10.5074 4.99197 -6.41834
upperback -2.76079 5.64732 -1.30408
thorax -9.38252 3.03245 1.12215
lowerneck 1.57157 -10.7471 -11.8034
upperneck -1.4215 -14.5604 11.5282
head 1.04333 -7.31749 5.0409
lclavicle 3.07122e-14 5.56597e-15 0
lhumerus -72.0925 -24.1655 105.404
lradius 102.231 -0 0
lwrist 55.5118 0 0
lhand 8.75053 57.1771 -0.0381294
lfingers 7.12502 -0 0
lthumb 33.9484 84.0518 -0.0156192
rclavicle 3.07122e-14 5.56597e-15 0
rhumerus 26.8791 17.7094 -46.189
rradius 95.6003 -0 0
rwrist -27.5335 0 0
rhand -24.1258 -36.0084 -0.0129782
rfingers 7.12502 -0 0
rthumb 2.3552 -65.9434 -0.00872646
613
root -4.22013 15.6376 -40.5302 -3.33112 -75.3644 10.5769
lfemur -8.07743 13.1914 -16.4863
ltibia 43.6157 -0 0
lfoot -22.2458 29.9555 0.00723841
ltoes -23.7649 0 0
rfemur -41.7429 -31.9643 18.0573
rtibia 78.6598 -0 0
rfoot -15.0219 -19.0871 0.0717901
rtoes -3.94274 0 0
lowerback 10.4458 4.99454 -6.48824
upperback -2.79742 5.6426 -1.33317
thorax -9.38813 3.03378 1.13477
lowerneck 1.48285 -10.732 -11.8171
upperneck -1.23257 -14.5455 11.5653
head 1.11586 -7.30814 5.04224
lclavicle 3.07122e-14 5.56597e-15 0
lhumerus -72.1159 -24.157 105.374
lradius 102.231 -0 0
lwrist 55.5971 0 0
lhand 8.53737 57.1055 -0.0289242
lfingers 7.12502 -0 0
lthumb 33.744 84.0062 -0.011759
rclavicle 3.07122e-14 5.56597e-15 0
rhumerus 27.0224 17.6273 -46.3423
rradius 96.9803 -0 0
rwrist -28.2857 0 0
rhand -24.4723 -35.8069 -0.0111405
rfingers 7.12502 -0 0
rthumb 2.02082 -65.753 -0.00786664
614
root -4.20553 15.6572 -40.4746 -3.09918 -75.4921 10.3459
lfemur -8.28436 13.2384 -16.5989
ltibia 43.7774 -0 0
lfoot -22.1795 29.9706 0.00487321
ltoes -23.9007 0 0
rfemur -41.4702 -32.1928 18.2808
rtibia 78.9111 -0 0
rfoot -15.1837 -19.4215 0.0448738
rtoes -3.6929 0 0
lowerback 10.3925 4.9943 -6.55712
upperback -2.82951 5.63411 -1.35925
thorax -9.39332 3.03318 1.1506
lowerneck 1.39435 -10.718 -11.8318
upperneck -1.04128 -14.5324 11.5998
head 1.18914 -7.29964 5.04285
lclavicle 3.07122e-14 5.56597e-15 0
lhumerus -72.1379 -24.1383 105.34
lradius 102.234 -0 0
lwrist 55.7 0 0
lhand 8.31173 57.0323 -0.0194781
lfingers 7.12502 -0 0
lthumb 33.5275 83.9604 -0.00785893
rclavicle 3.07122e-14 5.56597e-15 0
rhumerus 27.1409 17.5361 -46.5036
rradius 98.2641 -0 0
rwrist -28.9869 0 0
rhand -24.8076 -35.5994 -0.00834497
rfingers 7.12502 -0 0
rthumb 1.69712 -65.5562 -0.00611273
615
root -4.19675 15.6764 -40.4169 -2.88774 -75.6087 10.1249
lfemur -8.47188 13.2793 -16.6933
ltibia 43.9429 -0 0
lfoot -22.1135 29.9791 0.00245537
ltoes -24.034 0 0
rfemur -41.219 -32.4042 18.4849
rtibia 79.1403 -0 0
rfoot -15.3293 -19.7125 0.0207848
rtoes -3.44213 0 0
lowerback 10.3481 4.99117 -6.62479
upperback -2.85683 5.62174 -1.38215
thorax -9.39807 3.03058 1.16971
lowerneck 1.30626 -10.7052 -11.8477
upperneck -0.847912 -14.5212 11.6317
head 1.26306 -7.29202 5.04273
lclavicle 3.07122e-14 5.56597e-15 0
lhumerus -72.1587 -24.1092 105.3
lradius 102.238 -0 0
lwrist 55.8211 0 0
lhand 8.07361 56.9573 -0.0098252
lfingers 7.12502 -0 0
lthumb 33.2991 83.9146 -0.0039343
rclavicle 3.07122e-14 5.56597e-15 0
rhumerus 27.2333 17.4358 -46.6729
rradius 99.4457 -0 0
rwrist -29.6339 0 0
rhand -25.1308 -35.3862 -0.00461804
rfingers 7.12502 -0 0
rthumb 1.38513 -65.3534 -0.00348088
616
root -4.19404 15.6951 -40.3571 357.301 -75.7136 369.916
lfemur -8.63886 13.314 -16.7685
ltibia 44.112 0 0
lfoot -22.0479 29.9806 0
ltoes -24.1644 0 0
rfemur -40.9905 -32.5974 18.6687
rtibia 79.3461 0 0
rfoot -15.4578 -19.9581 0
rtoes -3.19088 0 0
lowerback 10.3128 4.98507 -6.69108
upperback -2.87916 5.60538 -1.40172
thorax -9.40235 3.02593 1.1922
lowerneck 1.21875 -10.6936 -11.8647
upperneck -0.652777 -14.5121 11.6607
head 1.3375 -7.28534 5.04183
lclavicle -6.31141e-14 1.98785e-15 0
lhumerus -72.178 -24.0693 105.256
lradius 102.244 0 0
lwrist 55.9607 0 0
lhand 7.82303 56.8809 0
lfingers 7.12502 0 0
lthumb 33.0588 83.8687 0
rclavicle -6.31141e-14 1.98785e-15 0
rhumerus 27.2987 17.326 -46.8499
rradius 100.519 0 0
rwrist -30.2236 0 0
rhand -25.4408 -35.1675 0
rfingers 7.12502 0 0
rthumb 1.08587 -65.1445 0
